<?xml version="1.0" encoding="UTF-8"?>
<svg width="752pt" height="752pt" version="1.1" viewBox="0 0 752 752" xmlns="http://www.w3.org/2000/svg">
 <g>
  <path d="m376 199.64c-117.68 0-213.11 72.031-213.11 161.02 0 37.082 16.672 71.039 44.609 98.457 0.42578 0.99609 0.89844 1.8945 1.2773 2.9375h0.007812c3.0234 9.1719 3.5 18.992 1.3711 28.414-2.4805 11.203-7.668 21.625-15.105 30.359-8.7734 10.145-19.781 18.121-32.156 23.297 12.938 5.4922 26.859 8.2969 40.918 8.2422h4.4062-0.003906c17.637-0.78516 34.895-5.3906 50.578-13.496 14.219-7.3828 27.043-17.191 37.887-28.984 25.738 7.6914 52.465 11.551 79.324 11.461 117.68 0 213.11-72.031 213.11-161.02 0-88.988-95.426-160.69-213.11-160.69zm0 298.07c-24.52 0.070312-48.918-3.4688-72.41-10.512l-14.207-4.3086-9.9922 10.797c-8.9336 9.7695-19.516 17.895-31.258 24.008-8.9492 4.5469-18.523 7.7422-28.414 9.4727 6.6172-9.7695 11.293-20.719 13.781-32.25 2.9961-13.57 2.2422-27.695-2.1758-40.871-0.5-1.418-1.0664-2.8086-1.707-4.168v-0.42578l-1.8477-4.3086-3.3633-3.2695c-24.484-23.68-37.461-52.094-37.461-81.457 0-75.773 84.961-137.34 189.43-137.34s189.43 61.566 189.43 137.34c0 75.777-85.34 137.25-189.81 137.25z"/>
  <path d="m361.18 416.96h28.367v27.895h-28.367z"/>
  <path d="m417.72 297.25c-10.387-9.1875-24.293-13.781-41.723-13.781-14.727-0.68359-29.176 4.1836-40.488 13.637-10.016 9.6719-15.961 22.801-16.625 36.703h28.133c1.2461-7.7656 5.0469-14.898 10.797-20.27 5.4805-4.5078 12.418-6.8672 19.512-6.6289 6.9844-0.35938 13.848 1.9219 19.227 6.3945 4.4688 3.8359 7 9.457 6.9141 15.344 0.027344 4.2695-1.3906 8.4258-4.0234 11.789-4.9492 5.1562-10.301 9.9102-16.008 14.211-7.1836 5.293-13.254 11.957-17.855 19.605-3.2188 6.9648-4.7461 14.59-4.4492 22.258v7.293h27.801-0.003906c-0.5-5.9414 0.22266-11.922 2.1328-17.57 3.1484-5.0508 7.2305-9.4531 12.027-12.977 9.2617-7.0352 17.504-15.324 24.484-24.625 3.7188-5.707 5.7109-12.367 5.7305-19.18-0.09375-12.531-5.8164-24.355-15.582-32.203z"/>
 </g>
</svg>
